# AST/ASF file generated using VICON BodyLanguage
# -----------------------------------------------
:version 1.10
:name VICON
:units
  mass 1.0
  length 0.45
  angle deg
:documentation
   .ast/.asf automatically generated from VICON data using
   VICON BodyBuilder and BodyLanguage model FoxedUp or BRILLIANT.MOD
:root
   order TX TY TZ RX RY RZ
   axis XYZ
   position 0 0 0  
   orientation 0 0 0 
:bonedata
  begin
     id 1 
     name lhipjoint
     direction 0.623529 -0.717805 0.309788 
     length 2.23224 
     axis 0 0 0  XYZ
  end
  begin
     id 2 
     name lfemur
     direction 0.34202 -0.939693 0  
     length 7.11402  
     axis 0 0 20  XYZ
    dof rx ry rz
    limits (-160.0 20.0)
           (-70.0 70.0)
           (-60.0 70.0)
  end
  begin
     id 3 
     name ltibia
     direction 0.34202 -0.939693 0   
     length 6.78496   
     axis 0 0 20   XYZ
    dof rx
    limits (-10.0 170.0)
  end
  begin
     id 4 
     name lfoot
     direction 0.125078 -0.343648 0.930732   
     length 1.84054   
     axis -90 7.62852e-016 20   XYZ
    dof rx rz
    limits (-45.0 90.0)
           (-70.0 20.0)
  end
  begin
     id 5 
     name ltoes
     direction 1.53565e-011 -4.21893e-011 1   
     length 0.916474   
     axis -90 7.62852e-016 20   XYZ
    dof rx
    limits (-90.0 20.0)
  end
  begin
     id 6 
     name rhipjoint
     direction -0.564688 -0.757748 0.327026   
     length 2.11457  
     axis 0 0 0  XYZ 
  end
  begin
     id 7 
     name rfemur
     direction -0.34202 -0.939693 0   
     length 7.14609   
     axis 0 0 -20   XYZ
    dof rx ry rz
    limits (-160.0 20.0)
           (-70.0 70.0)
           (-70.0 60.0)
  end
  begin
     id 8 
     name rtibia
     direction -0.34202 -0.939693 0   
     length 6.78101   
     axis 0 0 -20   XYZ
    dof rx
    limits (-10.0 170.0)
 end
 begin
     id 9 
     name rfoot
     direction -0.0992671 -0.272734 0.956955   
     length 1.96168  
     axis -90 -7.62852e-016 -20   XYZ
    dof rx rz
    limits (-45.0 90.0)
           (-20.0 70.0)
  end
  begin
     id 10 
     name rtoes
     direction -1.5356e-011 -4.21891e-011 1   
     length 0.982933   
     axis -90 -7.62852e-016 -20   XYZ
    dof rx
    limits (-90.0 20.0)
  end
  begin
     id 11 
     name lowerback
     direction -0.00596953 0.998668 0.0512524   
     length 1.87557   
     axis 0 0 0   XYZ
    dof rx ry rz
    limits (-20.0 45.0)
           (-30.0 30.0)
           (-30.0 30.0)
  end
  begin
     id 12 
     name upperback
     direction 0.00584879 0.999652 0.0257308   
     length 1.87883   
     axis 0 0 0   XYZ
    dof rx ry rz
    limits (-20.0 45.0)
           (-30.0 30.0)
           (-30.0 30.0)
  end
  begin
     id 13 
     name thorax
     direction 0.010104 0.999947 0.00178881   
     length 1.87779   
     axis 0 0 0   XYZ
    dof rx ry rz
    limits (-20.0 45.0)
           (-30.0 30.0)
           (-30.0 30.0)
  end
  begin
     id 14 
     name lowerneck
     direction 0.0120771 0.995934 -0.0892773   
     length 1.40897   
     axis 0 0 0   XYZ
    dof rx ry rz
    limits (-20.0 45.0)
           (-30.0 30.0)
           (-30.0 30.0)
  end
  begin
     id 15 
     name upperneck
     direction -0.030568 0.999465 -0.0116366   
     length 1.38661   
     axis 0 0 0   XYZ
    dof rx ry rz
    limits (-20.0 45.0)
           (-30.0 30.0)
           (-30.0 30.0)
  end
  begin
     id 16
     name head
     direction -0.0170715 0.999854 -0.00104426  
     length 1.47052  
     axis 0 0 0   XYZ
    dof rx ry rz
    limits (-20.0 45.0)
           (-30.0 30.0)
           (-30.0 30.0)
  end
  begin
     id 17 
     name lclavicle
     direction 0.977763 0.206143 0.038532  
     length 3.02424  
     axis 0 0 0   XYZ
    dof ry rz
    limits (-20.0 10.0)
           (0.0 20.0)
  end
  begin
     id 18 
     name lhumerus
     direction 1 -4.48965e-011 -2.62654e-027   
     length 4.68382   
     axis 180 -30 -90   XYZ
    dof rx ry rz
    limits (-60.0 90.0)
           (-90.0 90.0)
           (-90.0 90.0)
  end
  begin
     id 19
     name lradius
     direction 1 -4.48973e-011 -1.54954e-027   
     length 2.98124   
     axis 180 -30 -90   XYZ
    dof rx
    limits (-10.0 170.0)
  end
  begin
     id 20
     name lwrist
     direction 1 -4.48959e-011 7.20928e-028   
     length 1.49062   
     axis -5.52449e-016 90 90   XYZ
    dof ry
    limits (-180.0 0.0)
 end
  begin
     id 21 
     name lhand
     direction 1 -4.48971e-011 1.44186e-027   
     length 0.707595   
     axis -9.20027e-016 90 90   XYZ
    dof rx rz
    limits (-90.0 90.0)
           (-45.0 45.0)
  end
  begin
     id 22 
     name lfingers
     direction 1 -4.48985e-011 2.88371e-027   
     length 0.570481   
     axis -1.84005e-015 90 90   XYZ
    dof rx
    limits (0.0 90.0)
  end
  begin
     id 23
     name lthumb
     direction 0.707107 -6.34929e-011 0.707107   
     length 0.819101   
     axis -90 45 2.85299e-015   XYZ
    dof rx rz
    limits (-45.0 45.0)
           (-45.0 45.0)
  end
  begin
     id 24 
     name rclavicle
     direction -0.958661 0.284411 -0.00895327   
     length 3.11921  
     axis 0 0 0   XYZ 
    dof ry rz
    limits (-10.0 20.0)
           (-20.0 0.0)
  end
  begin
     id 25 
     name rhumerus
     direction -1 -4.48963e-011 -4.22193e-027  
     length 4.75876   
     axis 180 30 90   XYZ
    dof rx ry rz
    limits (-90.0 60.0)
           (-90.0 90.0)
           (-90.0 90.0)
  end
  begin
     id 26 
     name rradius
     direction -1 -4.48968e-011 -1.07616e-027   
     length 2.93293   
     axis 180 30 90   XYZ
    dof rx
    limits (-10.0 170.0)
  end
  begin
     id 27 
     name rwrist
     direction -1 -4.48965e-011 7.20928e-028   
     length 1.46647   
     axis -5.52449e-016 -90 -90   XYZ
    dof ry
    limits (-180.0 0.0)
  end
  begin
     id 28
     name rhand
     direction -1 -4.48971e-011 1.44186e-027   
     length 0.831748   
     axis -9.20027e-016 -90 -90   XYZ
    dof rx rz
    limits (-90.0 90.0)
           (-45.0 45.0)
  end
  begin
     id 29
     name rfingers
     direction -1 -4.48961e-011 2.88371e-027   
     length 0.670577   
     axis -1.84005e-015 -90 -90   XYZ
    dof rx
    limits (0.0 90.0)
  end
  begin
     id 30
     name rthumb
     direction -0.707107 -6.34929e-011 0.707107   
     length 0.962818   
     axis -90 -45 -2.85299e-015   XYZ
    dof rx rz
    limits (-45.0 45.0)
           (-45.0 45.0)
  end
:hierarchy
  begin
    root lhipjoint rhipjoint lowerback
    lhipjoint lfemur
    lfemur ltibia
    ltibia lfoot
    lfoot ltoes
    rhipjoint rfemur
    rfemur rtibia
    rtibia rfoot
    rfoot rtoes
    lowerback upperback
    upperback thorax
    thorax lowerneck lclavicle rclavicle
    lowerneck upperneck
    upperneck head
    lclavicle lhumerus
    lhumerus lradius
    lradius lwrist
    lwrist lhand lthumb
    lhand lfingers
    rclavicle rhumerus
    rhumerus rradius
    rradius rwrist
    rwrist rhand rthumb
    rhand rfingers
  end

#!OML:ASF E:\id_vita\Project 1\Capture day 1\Session 1\Female.ASF
:FULLY-SPECIFIED
:DEGREES
1
root -23.8913 16.4171 2.25516 -166.241 1.77802 -178.736
lowerback -14.2954 -1.1488 -3.26027
upperback -5.14896 -0.449872 0.881739
thorax 2.62105 0.0865226 2.70517
lowerneck 18.4314 0.672734 -8.15511
upperneck -24.5994 4.52458 16.4265
head -11.6551 1.36662 6.80747
rclavicle -2.5345e-015 5.96354e-016
rhumerus -32.3776 -17.5558 -85.723
rradius 15.2955
rwrist 31.2187
rhand -12.8091 12.2643
rfingers 7.12502
rthumb 13.2772 -17.2928
lclavicle -2.5345e-015 5.96354e-016
lhumerus -36.2966 34.7391 74.0489
lradius 14.1112
lwrist -61.3206
lhand 11.121 22.576
lfingers 7.12502
lthumb 36.1888 48.8459
rfemur -19.4966 10.5718 19.0285
rtibia 23.0435
rfoot -5.35905 -21.7036
rtoes -15.9421
lfemur -21.7867 -11.9577 -16.3138
ltibia 27.6229
lfoot -22.3435 5.27681
ltoes 2.03531
2
root -23.899 16.416 2.25613 -166.263 1.70726 -178.727
lowerback -14.251 -1.12257 -3.11614
upperback -5.15929 -0.433683 0.82086
thorax 2.5839 0.0941692 2.56214
lowerneck 18.6378 0.700086 -8.93207
upperneck -24.7852 4.82937 17.7175
head -11.8765 1.46789 7.4428
rclavicle 6.31141e-015 -8.34896e-015
rhumerus -32.3379 -17.7912 -85.6373
rradius 15.0904
rwrist 31.3457
rhand -13.1587 12.1935
rfingers 7.12502
rthumb 12.9403 -17.3852
lclavicle 6.31141e-015 -8.34896e-015
lhumerus -36.1444 34.4569 74.2038
lradius 14.0441
lwrist -60.9697
lhand 10.9976 22.8125
lfingers 7.12502
lthumb 36.0719 49.1113
rfemur -19.4699 10.354 19.0561
rtibia 23.0132
rfoot -5.41425 -21.5494
rtoes -16.4507
lfemur -21.8093 -12.1238 -16.306
ltibia 27.6674
lfoot -22.3013 5.47025
ltoes 1.48522
3
root -23.8988 16.4137 2.25429 -166.328 1.70834 -178.679
lowerback -14.2025 -1.09567 -3.11658
upperback -5.17986 -0.397382 0.799913
thorax 2.53373 0.113865 2.54615
lowerneck 18.3652 0.664881 -9.1647
upperneck -24.148 4.86733 18.4928
head -11.6159 1.44861 7.74591
rclavicle 2.5345e-015 1.78906e-015
rhumerus -32.3994 -17.7128 -85.6739
rradius 15.0276
rwrist 31.1938
rhand -13.6063 12.0443
rfingers 7.12502
rthumb 12.5087 -17.5613
lclavicle 2.5345e-015 1.78906e-015
lhumerus -36.1236 34.2076 74.2686
lradius 14.042
lwrist -60.7819
lhand 10.9166 23.0666
lfingers 7.12502
lthumb 35.9952 49.3843
rfemur -19.3466 10.243 19.1481
rtibia 22.9367
rfoot -5.33979 -21.4662
rtoes -17.6105
lfemur -21.767 -11.9918 -16.2894
ltibia 27.7445
lfoot -22.395 5.40129
ltoes 1.36841
4
root -23.8972 16.4132 2.25378 -166.242 1.70093 -178.644
lowerback -14.2484 -1.095 -3.14652
upperback -5.25786 -0.377786 0.811685
thorax 2.4756 0.132163 2.57863
lowerneck 18.2508 0.69836 -9.20565
upperneck -23.7706 4.96545 18.8538
head -11.4824 1.47193 7.85642
rclavicle 4.22417e-016 -1.39149e-015
rhumerus -32.5026 -17.5093 -85.728
rradius 15.1159
rwrist 30.8739
rhand -13.9725 11.9611
rfingers 7.12502
rthumb 12.1557 -17.6658
lclavicle 4.22417e-016 -1.39149e-015
lhumerus -36.2114 34.1504 74.23
lradius 14.0581
lwrist -60.8213
lhand 10.997 23.204
lfingers 7.12502
lthumb 36.0713 49.503
rfemur -19.4185 10.1337 19.2033
rtibia 22.9031
rfoot -5.11193 -21.4084
rtoes -17.8758
lfemur -21.893 -11.8203 -16.2389
ltibia 27.7835
lfoot -22.4734 5.14657
ltoes 1.70284
5
root -23.888 16.4156 2.24646 -166.249 1.73738 -178.634
lowerback -14.3617 -1.12992 -3.33292
upperback -5.23075 -0.396965 0.869591
thorax 2.56757 0.122257 2.74231
lowerneck 18.0733 0.75071 -9.27192
upperneck -23.4862 5.0652 19.0984
head -11.3681 1.51316 7.92925
rclavicle 4.96962e-017 3.37934e-015
rhumerus -32.5213 -18.0898 -85.4045
rradius 14.9778
rwrist 31.5334
rhand -14.0038 12.0787
rfingers 7.12502
rthumb 12.1255 -17.5499
lclavicle 4.96962e-017 3.37934e-015
lhumerus -36.211 34.0921 74.3009
lradius 14.0928
lwrist -60.7111
lhand 11.0672 23.18
lfingers 7.12502
lthumb 36.1378 49.4625
rfemur -19.3439 10.3571 19.2309
rtibia 22.8557
rfoot -4.94665 -21.5494
rtoes -17.1158
lfemur -21.8467 -11.8258 -16.2005
ltibia 27.817
lfoot -22.5503 5.14704
ltoes 1.75539
6
root -23.8971 16.4172 2.24977 -166.232 1.7483 -178.568
lowerback -14.357 -1.14388 -3.1749
upperback -5.19494 -0.443332 0.871818
thorax 2.6048 0.0942765 2.64754
lowerneck 17.7746 0.806487 -9.18068
upperneck -23.2001 5.1896 19.209
head -11.2257 1.57255 7.91076
rclavicle -7.09413e-015 3.77691e-015
rhumerus -32.3872 -18.4527 -85.2668
rradius 14.8238
rwrist 32.0653
rhand -13.867 12.1235
rfingers 7.12502
rthumb 12.2574 -17.4973
lclavicle -7.09413e-015 3.77691e-015
lhumerus -36.1292 34.1497 74.3321
lradius 14.1211
lwrist -60.6518
lhand 11.0557 22.9558
lfingers 7.12502
lthumb 36.1269 49.2411
rfemur -19.4068 10.2619 19.2634
rtibia 22.847
rfoot -5.29889 -21.3781
rtoes -16.8403
lfemur -21.8918 -12.124 -16.1097
ltibia 27.8215
lfoot -22.4115 5.48152
ltoes 1.82814
7
root -23.8935 16.4183 2.24324 -166.271 1.72123 -178.504
lowerback -14.4008 -1.0909 -3.19896
upperback -5.18837 -0.365091 0.812319
thorax 2.62973 0.132735 2.61169
lowerneck 17.6934 0.742632 -8.87437
upperneck -22.948 5.24504 19.4149
head -11.1293 1.5681 7.90651
rclavicle -2.01269e-015 -7.15625e-015
rhumerus -32.4606 -18.4496 -85.3953
rradius 14.9174
rwrist 31.7224
rhand -13.7843 12.2213
rfingers 7.12502
rthumb 12.3371 -17.3947
lclavicle -2.01269e-015 -7.15625e-015
lhumerus -35.9903 33.6144 74.4948
lradius 14.1397
lwrist -60.3525
lhand 11.2091 22.8268
lfingers 7.12502
lthumb 36.2722 49.076
rfemur -19.3189 10.4116 19.3383
rtibia 22.8717
rfoot -5.39963 -21.5884
rtoes -15.9994
lfemur -21.7967 -11.9122 -16.0633
ltibia 27.7946
lfoot -22.4744 5.27195
ltoes 2.04229
8
root -23.8981 16.4184 2.24325 -166.218 1.69601 -178.547
lowerback -14.4031 -0.989813 -3.3129
upperback -5.21702 -0.206567 0.716282
thorax 2.59026 0.21501 2.60136
lowerneck 17.4639 0.607902 -8.51923
upperneck -22.6453 5.22688 19.645
head -10.9709 1.5368 7.90559
rclavicle 4.95719e-015 -9.93923e-016
rhumerus -32.5587 -18.9871 -85.2152
rradius 15.0069
rwrist 31.8207
rhand -13.8217 12.3345
rfingers 7.12502
rthumb 12.301 -17.2836
lclavicle 4.95719e-015 -9.93923e-016
lhumerus -35.7295 32.9608 74.8212
lradius 14.1378
lwrist -59.9746
lhand 11.4111 22.7731
lfingers 7.12502
lthumb 36.4635 48.9744
rfemur -19.3789 10.2345 19.2853
rtibia 22.8647
rfoot -5.69235 -21.4238
rtoes -16.9907
lfemur -21.8666 -11.8201 -16.1256
ltibia 27.794
lfoot -22.5229 5.12578
ltoes 2.0606
9
root -23.8993 16.4172 2.24196 -166.182 1.56715 -178.599
lowerback -14.3876 -1.04072 -3.45791
upperback -5.30689 -0.240816 0.720313
thorax 2.4906 0.208737 2.68179
lowerneck 17.4256 0.656011 -8.52712
upperneck -22.289 5.34983 19.9929
head -10.8703 1.5744 8.00357
rclavicle -1.54058e-015 8.54774e-015
rhumerus -32.7385 -19.1535 -85.0193
rradius 15.109
rwrist 32.0259
rhand -13.8249 12.1989
rfingers 7.12502
rthumb 12.2979 -17.4195
lclavicle -1.54058e-015 8.54774e-015
lhumerus -35.8657 32.922 74.7575
lradius 14.1146
lwrist -59.9982
lhand 11.4222 22.5906
lfingers 7.12502
lthumb 36.474 48.7892
rfemur -19.3885 10.1407 19.254
rtibia 22.8344
rfoot -5.36816 -21.4951
rtoes -17.0969
lfemur -21.9417 -11.8162 -16.1646
ltibia 27.8091
lfoot -22.6042 4.97297
ltoes 2.109
